<?xml version="1.0" standalone="no"?>
<!DOCTYPE svg PUBLIC "-//W3C//DTD SVG 20010904//EN"
 "http://www.w3.org/TR/2001/REC-SVG-20010904/DTD/svg10.dtd">
<svg version="1.0" xmlns="http://www.w3.org/2000/svg"
 width="512.000000pt" height="512.000000pt" viewBox="0 0 512.000000 512.000000"
 preserveAspectRatio="xMidYMid meet">
<metadata>
Created by potrace 1.14, written by Peter Selinger 2001-2017
</metadata>
<g transform="translate(0.000000,512.000000) scale(0.100000,-0.100000)"
fill="#000000" stroke="none">
<path d="M2330 5110 c-491 -51 -928 -221 -1319 -513 -123 -92 -396 -364 -488
-487 -593 -794 -688 -1811 -252 -2689 129 -261 281 -470 491 -678 396 -393
876 -631 1448 -719 177 -28 540 -25 725 4 284 45 512 117 764 243 258 128 453
268 659 471 402 398 649 888 739 1468 24 160 24 527 -1 695 -42 289 -114 522
-240 780 -140 285 -292 493 -528 721 -204 197 -398 332 -652 454 -248 120
-476 191 -739 231 -151 23 -473 33 -607 19z m535 -1200 c233 -21 374 -77 497
-200 62 -61 86 -95 117 -161 48 -101 71 -207 71 -326 0 -166 -48 -281 -164
-391 -71 -67 -203 -145 -291 -172 -53 -17 -67 -30 -29 -30 57 0 230 -51 314
-93 174 -85 310 -261 340 -440 17 -99 8 -263 -20 -352 -74 -238 -274 -417
-552 -494 -167 -47 -245 -51 -1025 -51 l-733 0 0 70 0 70 150 0 150 0 0 1220
0 1220 -150 0 -150 0 0 70 0 70 683 0 c375 0 732 -5 792 -10z"/>
<path d="M2170 3231 l0 -551 268 0 c205 0 281 3 325 15 225 59 327 223 327
527 0 318 -89 469 -316 533 -47 14 -116 18 -331 22 l-273 5 0 -551z"/>
<path d="M2398 2542 l-228 -2 0 -601 0 -601 303 5 c330 5 359 9 487 69 81 39
186 141 223 218 46 95 61 173 61 305 -1 77 -7 145 -18 189 -47 193 -184 335
-378 393 -74 21 -195 28 -450 25z"/>
</g>
</svg>
